<svg width="72" height="30" viewBox="0 0 36 15" fill="none" xmlns="http://www.w3.org/2000/svg">
<path fill-rule="evenodd" clip-rule="evenodd" d="M6.40696 1.93392C5.99606 2.4406 5.33862 2.84023 4.68117 2.78314C4.59899 2.09806 4.92086 1.37016 5.29753 0.920577C5.70843 0.39963 6.42751 0.028545 7.00962 0C7.0781 0.713625 6.81102 1.41298 6.40696 1.93392ZM7.00187 2.91891C6.42268 2.88418 5.89419 3.10042 5.46731 3.27509C5.1926 3.38749 4.95998 3.48268 4.783 3.48268C4.58439 3.48268 4.34217 3.3824 4.0702 3.26982C3.71383 3.1223 3.3064 2.95364 2.87915 2.96173C1.89983 2.976 0.988998 3.55404 0.489066 4.47462C-0.53819 6.31577 0.22198 9.04181 1.21499 10.5404C1.70123 11.2826 2.28334 12.0961 3.05036 12.0676C3.3878 12.0543 3.63054 11.947 3.88175 11.8359C4.17096 11.708 4.4714 11.5752 4.94051 11.5752C5.39336 11.5752 5.68067 11.7046 5.95646 11.8288C6.21869 11.9469 6.47052 12.0603 6.84436 12.0533C7.63877 12.039 8.13871 11.3111 8.62494 10.569C9.14965 9.77244 9.38024 8.99507 9.41525 8.87706L9.41525 8.87706L9.41935 8.86341C9.41851 8.86253 9.41203 8.85944 9.40059 8.85398C9.22518 8.7703 7.88448 8.13073 7.87162 6.41567C7.85871 4.97613 8.93503 4.24677 9.10446 4.13196C9.11478 4.12497 9.12173 4.12026 9.12487 4.1178C8.44003 3.06164 7.37169 2.94746 7.00187 2.91891ZM12.5021 11.9745V0.849127H16.5084C18.5766 0.849127 20.0216 2.33347 20.0216 4.50289C20.0216 6.6723 18.5492 8.17092 16.4536 8.17092H14.1594V11.9745H12.5021ZM14.1573 2.30379H16.068C17.5062 2.30379 18.328 3.10305 18.328 4.50889C18.328 5.91473 17.5062 6.72113 16.0612 6.72113H14.1573V2.30379ZM25.4948 10.6403C25.0565 11.5109 24.0909 12.0604 23.0499 12.0604C21.509 12.0604 20.4338 11.1041 20.4338 9.66261C20.4338 8.23536 21.4748 7.41469 23.3992 7.29337L25.4674 7.16492V6.5512C25.4674 5.6449 24.899 5.1525 23.8854 5.1525C23.0499 5.1525 22.4404 5.60208 22.3171 6.28716H20.8242C20.8721 4.84564 22.1733 3.79661 23.9333 3.79661C25.8303 3.79661 27.0631 4.83137 27.0631 6.43703V11.9748H25.529V10.6403H25.4948ZM23.4949 10.7399C22.6115 10.7399 22.0499 10.2975 22.0499 9.61956C22.0499 8.92021 22.5909 8.51344 23.625 8.44921L25.4672 8.3279V8.95589C25.4672 9.99778 24.618 10.7399 23.4949 10.7399ZM32.1488 12.4096C31.4845 14.3578 30.7244 15.0001 29.1081 15.0001C28.9849 15.0001 28.574 14.9858 28.4781 14.9573V13.6228C28.5808 13.6371 28.8342 13.6514 28.9643 13.6514C29.6971 13.6514 30.108 13.3302 30.3614 12.4953L30.5121 12.0029L27.7042 3.90324H29.4369L31.3887 10.4757H31.4229L33.3747 3.90324H35.0594L32.1488 12.4096Z" fill="#B1B2B5"/>
</svg>
