<svg width="24" height="24" viewBox="0 0 24 24" fill="none" xmlns="http://www.w3.org/2000/svg">
<path fill-rule="evenodd" clip-rule="evenodd" d="M12 22.5C14.7848 22.5 17.4555 21.3938 19.4246 19.4246C21.3938 17.4555 22.5 14.7848 22.5 12C22.5 9.21523 21.3938 6.54451 19.4246 4.57538C17.4555 2.60625 14.7848 1.5 12 1.5C9.21523 1.5 6.54451 2.60625 4.57538 4.57538C2.60625 6.54451 1.5 9.21523 1.5 12C1.5 14.7848 2.60625 17.4555 4.57538 19.4246C6.54451 21.3938 9.21523 22.5 12 22.5ZM12 24C15.1826 24 18.2348 22.7357 20.4853 20.4853C22.7357 18.2348 24 15.1826 24 12C24 8.8174 22.7357 5.76516 20.4853 3.51472C18.2348 1.26428 15.1826 0 12 0C8.8174 0 5.76516 1.26428 3.51472 3.51472C1.26428 5.76516 0 8.8174 0 12C0 15.1826 1.26428 18.2348 3.51472 20.4853C5.76516 22.7357 8.8174 24 12 24Z" fill="#4A4A49"/>
<path fill-rule="evenodd" clip-rule="evenodd" d="M11.4703 17.0319C11.4005 16.9623 11.3451 16.8795 11.3073 16.7884C11.2695 16.6973 11.25 16.5996 11.25 16.5009C11.25 16.4023 11.2695 16.3046 11.3073 16.2135C11.3451 16.1224 11.4005 16.0396 11.4703 15.9699L15.4408 12.0009L11.4703 8.03195C11.4006 7.96222 11.3453 7.87943 11.3076 7.78832C11.2698 7.69721 11.2504 7.59956 11.2504 7.50095C11.2504 7.40233 11.2698 7.30468 11.3076 7.21357C11.3453 7.12246 11.4006 7.03968 11.4703 6.96995C11.5401 6.90022 11.6229 6.8449 11.714 6.80716C11.8051 6.76942 11.9027 6.75 12.0013 6.75C12.1 6.75 12.1976 6.76942 12.2887 6.80716C12.3798 6.8449 12.4626 6.90022 12.5323 6.96995L17.0323 11.4699C17.1022 11.5396 17.1576 11.6224 17.1954 11.7135C17.2332 11.8046 17.2527 11.9023 17.2527 12.0009C17.2527 12.0996 17.2332 12.1973 17.1954 12.2884C17.1576 12.3795 17.1022 12.4623 17.0323 12.5319L12.5323 17.0319C12.4627 17.1018 12.3799 17.1572 12.2888 17.195C12.1977 17.2328 12.1 17.2523 12.0013 17.2523C11.9027 17.2523 11.805 17.2328 11.7139 17.195C11.6228 17.1572 11.54 17.1018 11.4703 17.0319Z" fill="#4A4A49"/>
<path fill-rule="evenodd" clip-rule="evenodd" d="M6.75 12C6.75 11.8011 6.82902 11.6103 6.96967 11.4697C7.11032 11.329 7.30109 11.25 7.5 11.25H15C15.1989 11.25 15.3897 11.329 15.5303 11.4697C15.671 11.6103 15.75 11.8011 15.75 12C15.75 12.1989 15.671 12.3897 15.5303 12.5303C15.3897 12.671 15.1989 12.75 15 12.75H7.5C7.30109 12.75 7.11032 12.671 6.96967 12.5303C6.82902 12.3897 6.75 12.1989 6.75 12Z" fill="#4A4A49"/>
</svg>
