<svg width="24" height="24" viewBox="0 0 24 24" fill="none" xmlns="http://www.w3.org/2000/svg">
<path d="M9.99981 19.0001C9.76616 19.0005 9.53972 18.9191 9.35981 18.7701C9.25855 18.6861 9.17485 18.583 9.11349 18.4667C9.05214 18.3503 9.01435 18.223 9.00227 18.092C8.99019 17.9611 9.00408 17.829 9.04312 17.7034C9.08217 17.5778 9.1456 17.4611 9.22981 17.3601L13.7098 12.0001L9.38981 6.63006C9.30674 6.52777 9.24471 6.41008 9.20728 6.28374C9.16985 6.1574 9.15775 6.02491 9.17169 5.89388C9.18563 5.76285 9.22533 5.63587 9.2885 5.52023C9.35168 5.4046 9.43708 5.30259 9.53981 5.22006C9.64327 5.12903 9.76444 5.06036 9.8957 5.01837C10.027 4.97638 10.1655 4.96198 10.3026 4.97606C10.4397 4.99015 10.5724 5.03242 10.6924 5.10022C10.8123 5.16802 10.917 5.25989 10.9998 5.37006L15.8298 11.3701C15.9769 11.549 16.0573 11.7734 16.0573 12.0051C16.0573 12.2367 15.9769 12.4611 15.8298 12.6401L10.8298 18.6401C10.7295 18.7611 10.6021 18.8567 10.4578 18.9193C10.3136 18.9818 10.1567 19.0095 9.99981 19.0001Z" fill="#4A4A49"/>
</svg>
