<svg width="18" height="10" viewBox="0 0 18 10" fill="none" xmlns="http://www.w3.org/2000/svg">
<path fill-rule="evenodd" clip-rule="evenodd" d="M0.52789 0.528011C0.589817 0.465927 0.663385 0.41667 0.744378 0.383061C0.825372 0.349452 0.9122 0.332153 0.99989 0.332153C1.08758 0.332153 1.17441 0.349452 1.2554 0.383061C1.33639 0.41667 1.40996 0.465927 1.47189 0.528011L8.99989 8.05734L16.5279 0.528011C16.5899 0.466027 16.6635 0.416859 16.7444 0.383313C16.8254 0.349768 16.9122 0.332502 16.9999 0.332502C17.0875 0.332502 17.1743 0.349768 17.2553 0.383313C17.3363 0.416859 17.4099 0.466027 17.4719 0.528011C17.5339 0.589995 17.583 0.663581 17.6166 0.744567C17.6501 0.825552 17.6674 0.912353 17.6674 1.00001C17.6674 1.08767 17.6501 1.17447 17.6166 1.25546C17.583 1.33644 17.5339 1.41003 17.4719 1.47201L9.47189 9.47201C9.40996 9.5341 9.33639 9.58335 9.2554 9.61696C9.17441 9.65057 9.08758 9.66787 8.99989 9.66787C8.9122 9.66787 8.82537 9.65057 8.74438 9.61696C8.66338 9.58335 8.58982 9.5341 8.52789 9.47201L0.52789 1.47201C0.465805 1.41008 0.416548 1.33652 0.38294 1.25552C0.349331 1.17453 0.332031 1.0877 0.332031 1.00001C0.332031 0.912322 0.349331 0.825493 0.38294 0.7445C0.416548 0.663506 0.465805 0.589939 0.52789 0.528011Z" fill="#EFEFEF"/>
</svg>
