<svg width="32" height="32" viewBox="0 0 32 32" fill="none" xmlns="http://www.w3.org/2000/svg">
<path d="M22.3593 12.1844C22.3593 10.3853 21.6893 8.65938 20.4966 7.3872C19.3029 6.11502 17.684 5.39941 15.9984 5.39941C14.3117 5.39941 12.6939 6.11396 11.5002 7.3872C10.3075 8.65938 9.63748 10.3853 9.63748 12.1844C9.63748 20.1005 6.45703 22.3618 6.45703 22.3618H25.5397C25.5397 22.3618 22.3593 20.1005 22.3593 12.1844Z" stroke="#4A4A49" stroke-width="1.5" stroke-linecap="round" stroke-linejoin="round"/>
<path d="M17.8322 25.542C17.646 25.8636 17.3786 26.1305 17.0567 26.3161C16.7347 26.5017 16.3697 26.5994 15.9981 26.5994C15.6265 26.5994 15.2615 26.5017 14.9396 26.3161C14.6177 26.1305 14.3502 25.8636 14.1641 25.542" stroke="#4A4A49" stroke-width="1.5" stroke-linecap="round" stroke-linejoin="round"/>
</svg>
