<svg width="32" height="32" viewBox="0 0 32 32" fill="none" xmlns="http://www.w3.org/2000/svg">
<path d="M22.3608 12.1849C22.3608 10.3858 21.6907 8.65986 20.4981 7.38768C19.3043 6.1155 17.6855 5.3999 15.9998 5.3999C14.3132 5.3999 12.6954 6.11444 11.5016 7.38768C10.309 8.65986 9.63895 10.3858 9.63895 12.1849C9.63895 20.101 6.4585 22.3623 6.4585 22.3623H25.5412C25.5412 22.3623 22.3608 20.101 22.3608 12.1849Z" stroke="white" stroke-width="1.5" stroke-linecap="round" stroke-linejoin="round"/>
<path d="M17.8341 25.5428C17.648 25.8644 17.3805 26.1314 17.0586 26.317C16.7367 26.5026 16.3717 26.6003 16.0001 26.6003C15.6285 26.6003 15.2634 26.5026 14.9415 26.317C14.6196 26.1314 14.3522 25.8644 14.166 25.5428" stroke="white" stroke-width="1.5" stroke-linecap="round" stroke-linejoin="round"/>
</svg>
