<svg width="32" height="32" viewBox="0 0 32 32" fill="none" xmlns="http://www.w3.org/2000/svg">
<path d="M13.3132 25.8531C13.8079 25.8531 14.209 25.433 14.209 24.9147C14.209 24.3965 13.8079 23.9763 13.3132 23.9763C12.8185 23.9763 12.4175 24.3965 12.4175 24.9147C12.4175 25.433 12.8185 25.8531 13.3132 25.8531Z" stroke="#4A4A49" stroke-width="1.5" stroke-linecap="round" stroke-linejoin="round"/>
<path d="M23.1663 25.8531C23.661 25.8531 24.062 25.433 24.062 24.9147C24.062 24.3965 23.661 23.9763 23.1663 23.9763C22.6715 23.9763 22.2705 24.3965 22.2705 24.9147C22.2705 25.433 22.6715 25.8531 23.1663 25.8531Z" stroke="#4A4A49" stroke-width="1.5" stroke-linecap="round" stroke-linejoin="round"/>
<path d="M6.14697 6.14673H9.72997L12.1306 18.712C12.2996 19.6037 13.0544 20.2402 13.9221 20.2228H22.6288C23.4964 20.2402 24.2512 19.6037 24.4203 18.712L25.8535 8.96194H10.6257" stroke="#4A4A49" stroke-width="1.5" stroke-linecap="round" stroke-linejoin="round"/>
</svg>
