<svg width="234" height="24" viewBox="0 0 234 24" fill="none" xmlns="http://www.w3.org/2000/svg">
<rect x="0.5" y="0.5" width="33" height="23" rx="3.5" fill="white" stroke="#D9D9D9"/>
<path fill-rule="evenodd" clip-rule="evenodd" d="M10.751 15.8579H8.69129L7.14674 9.79198C7.07343 9.51295 6.91776 9.26627 6.68879 9.15001C6.11737 8.85784 5.4877 8.62531 4.80078 8.50804V8.2745H8.11886C8.57681 8.2745 8.92026 8.62531 8.97751 9.03274L9.77891 13.4083L11.8376 8.2745H13.8401L10.751 15.8579ZM14.985 15.8579H13.0398L14.6415 8.2745H16.5868L14.985 15.8579ZM19.1035 10.3753C19.1607 9.96689 19.5042 9.73335 19.9049 9.73335C20.5346 9.67471 21.2205 9.79199 21.7929 10.0832L22.1364 8.45042C21.5639 8.21688 20.9343 8.09961 20.3628 8.09961C18.4748 8.09961 17.101 9.15002 17.101 10.6078C17.101 11.7169 18.0741 12.2992 18.761 12.65C19.5042 12.9998 19.7904 13.2334 19.7332 13.5832C19.7332 14.1079 19.1607 14.3414 18.5893 14.3414C17.9024 14.3414 17.2155 14.1665 16.5868 13.8743L16.2433 15.5081C16.9303 15.7992 17.6734 15.9165 18.3603 15.9165C20.4773 15.9741 21.7929 14.9247 21.7929 13.3496C21.7929 11.3661 19.1035 11.2498 19.1035 10.3753ZM28.6008 15.8579L27.0562 8.2745H25.3972C25.0537 8.2745 24.7103 8.50804 24.5958 8.85784L21.7356 15.8579H23.7381L24.1378 14.7498H26.5983L26.8273 15.8579H28.6008ZM25.6834 10.3167L26.2548 13.1747H24.653L25.6834 10.3167Z" fill="#172B85"/>
<rect x="40.5" y="0.5" width="33" height="23" rx="3.5" fill="white" stroke="#D9D9D9"/>
<path fill-rule="evenodd" clip-rule="evenodd" d="M57.179 16.8288C55.9949 17.8268 54.459 18.4293 52.7807 18.4293C49.0358 18.4293 46 15.4296 46 11.7293C46 8.02899 49.0358 5.0293 52.7807 5.0293C54.459 5.0293 55.9949 5.63179 57.179 6.62984C58.363 5.63179 59.8989 5.0293 61.5773 5.0293C65.3221 5.0293 68.358 8.02899 68.358 11.7293C68.358 15.4296 65.3221 18.4293 61.5773 18.4293C59.8989 18.4293 58.363 17.8268 57.179 16.8288Z" fill="#ED0006"/>
<path fill-rule="evenodd" clip-rule="evenodd" d="M57.1797 16.8288C58.6376 15.5999 59.5621 13.7713 59.5621 11.7293C59.5621 9.68734 58.6376 7.85874 57.1797 6.62984C58.3637 5.63179 59.8996 5.0293 61.578 5.0293C65.3228 5.0293 68.3587 8.02899 68.3587 11.7293C68.3587 15.4296 65.3228 18.4293 61.578 18.4293C59.8996 18.4293 58.3637 17.8268 57.1797 16.8288Z" fill="#F9A000"/>
<path fill-rule="evenodd" clip-rule="evenodd" d="M57.1793 16.8278C58.6372 15.5989 59.5616 13.7703 59.5616 11.7283C59.5616 9.6864 58.6372 7.85781 57.1793 6.62891C55.7213 7.85781 54.7969 9.6864 54.7969 11.7283C54.7969 13.7703 55.7213 15.5989 57.1793 16.8278Z" fill="#FF5E00"/>
<rect x="80" width="34" height="24" rx="4" fill="#1F72CD"/>
<path fill-rule="evenodd" clip-rule="evenodd" d="M86.0952 8.5L82.9141 15.7467H86.7223L87.1944 14.5913H88.2735L88.7457 15.7467H92.9375V14.8649L93.311 15.7467H95.4793L95.8528 14.8462V15.7467H104.571L105.631 14.6213L106.623 15.7467L111.101 15.7561L107.91 12.1436L111.101 8.5H106.693L105.661 9.60463L104.699 8.5H95.2156L94.4013 10.3704L93.5678 8.5H89.7675V9.35186L89.3447 8.5H86.0952ZM86.832 9.52905H88.6884L90.7984 14.4431V9.52905H92.8319L94.4617 13.0524L95.9637 9.52905H97.987V14.7291H96.7559L96.7458 10.6544L94.9509 14.7291H93.8495L92.0446 10.6544V14.7291H89.5118L89.0316 13.5633H86.4374L85.9583 14.728H84.6012L86.832 9.52905ZM104.12 9.52905H99.1134V14.726H104.042L105.631 13.0036L107.162 14.726H108.762L106.436 12.1426L108.762 9.52905H107.231L105.651 11.2316L104.12 9.52905ZM87.7351 10.4089L86.8804 12.4856H88.5888L87.7351 10.4089ZM100.35 11.555V10.6057V10.6048H103.473L104.836 12.1229L103.413 13.6493H100.35V12.613H103.081V11.555H100.35Z" fill="white"/>
<rect x="120.5" y="0.5" width="33" height="23" rx="3.5" fill="white" stroke="#D9D9D9"/>
<path d="M134 23L153 17.25V20C153 21.6569 151.657 23 150 23H134Z" fill="#FD6020"/>
<path fill-rule="evenodd" clip-rule="evenodd" d="M149.394 9.11084C150.439 9.11084 151.014 9.59438 151.014 10.5077C151.066 11.2062 150.596 11.7972 149.969 11.9046L151.38 13.8925H150.282L149.08 11.9584H148.976V13.8925H148.087V9.11084H149.394ZM148.976 11.3137H149.237C149.812 11.3137 150.073 11.045 150.073 10.5615C150.073 10.1317 149.812 9.86304 149.237 9.86304H148.976V11.3137ZM145.003 13.8925H147.512V13.0866H145.892V11.7972H147.46V10.9913H145.892V9.91674H147.512V9.11084H145.003V13.8925ZM142.39 12.3345L141.188 9.11084H140.247L142.181 14H142.652L144.585 9.11084H143.645L142.39 12.3345ZM131.78 11.5286C131.78 12.8717 132.826 14 134.132 14C134.551 14 134.916 13.8925 135.282 13.7314V12.6568C135.021 12.9792 134.655 13.1941 134.237 13.1941C133.401 13.1941 132.721 12.5494 132.721 11.6897V11.5823C132.669 10.7227 133.348 9.97048 134.185 9.91675C134.603 9.91675 135.021 10.1317 135.282 10.454V9.37948C134.969 9.16458 134.551 9.11085 134.185 9.11085C132.826 9.0034 131.78 10.1317 131.78 11.5286ZM130.16 10.9376C129.638 10.7227 129.481 10.6152 129.481 10.3466C129.533 10.0242 129.794 9.75557 130.108 9.8093C130.369 9.8093 130.631 9.97048 130.84 10.1854L131.31 9.54066C130.944 9.2183 130.474 9.00339 130.003 9.00339C129.272 8.94967 128.645 9.54066 128.592 10.2928V10.3466C128.592 10.9913 128.854 11.3674 129.69 11.636C129.899 11.6897 130.108 11.7972 130.317 11.9046C130.474 12.0121 130.578 12.1733 130.578 12.3882C130.578 12.7643 130.265 13.0866 129.951 13.0866H129.899C129.481 13.0866 129.115 12.818 128.958 12.4419L128.383 13.0329C128.697 13.6239 129.324 13.9463 129.951 13.9463C130.787 14 131.467 13.3553 131.519 12.4956V12.3345C131.467 11.6897 131.206 11.3674 130.16 10.9376ZM127.129 13.8925H128.017V9.11084H127.129V13.8925ZM123 9.11086H124.307H124.568C125.822 9.16458 126.815 10.2391 126.763 11.5286C126.763 12.227 126.449 12.8717 125.927 13.3553C125.456 13.7314 124.882 13.9463 124.307 13.8926H123V9.11086ZM124.15 13.0866C124.568 13.1404 125.038 12.9792 125.352 12.7105C125.666 12.3882 125.822 11.9584 125.822 11.4748C125.822 11.045 125.666 10.6152 125.352 10.2928C125.038 10.0242 124.568 9.86302 124.15 9.91674H123.889V13.0866H124.15Z" fill="black"/>
<path fill-rule="evenodd" clip-rule="evenodd" d="M137.947 9C136.641 9 135.543 10.0745 135.543 11.4714C135.543 12.8146 136.588 13.9429 137.947 13.9966C139.306 14.0503 140.351 12.9221 140.404 11.5252C140.351 10.1283 139.306 9 137.947 9V9Z" fill="#FD6020"/>
<rect x="160.5" y="0.5" width="33" height="23" rx="3.5" fill="white" stroke="#D9D9D9"/>
<path d="M181.984 11.9542C182.515 11.9658 183.049 11.9308 183.578 11.9724C184.114 12.0724 184.243 12.8836 183.767 13.1493C183.443 13.3243 183.057 13.2145 182.705 13.2454H181.984V11.9542ZM183.886 10.4928C184.004 10.9095 183.602 11.2835 183.201 11.2262H181.984C181.992 10.8333 181.967 10.4068 181.996 10.0346C182.484 10.0484 182.976 10.0066 183.46 10.0564C183.669 10.1088 183.843 10.28 183.886 10.4928ZM186.815 4.31448C186.837 5.11012 186.818 5.94781 186.824 6.75959C186.823 10.06 186.827 13.3603 186.822 16.6609C186.8 17.8978 185.704 18.9726 184.476 18.9972C183.246 19.0022 182.017 18.998 180.787 18.9994V14.0099C182.127 14.003 183.467 14.0239 184.806 13.9994C185.428 13.9604 186.108 13.5505 186.137 12.8668C186.21 12.1801 185.563 11.7051 184.948 11.6301C184.712 11.624 184.719 11.5613 184.948 11.5339C185.535 11.4072 185.995 10.8004 185.822 10.1928C185.675 9.55368 184.969 9.30631 184.381 9.30754C183.183 9.2994 181.985 9.30641 180.787 9.30404C180.795 8.37256 180.771 7.44008 180.8 6.50928C180.895 5.2947 182.019 4.29307 183.23 4.3148C184.425 4.31462 185.62 4.31462 186.815 4.31457V4.31448Z" fill="url(#paint0_linear)"/>
<path d="M167.247 6.6353C167.277 5.40035 168.378 4.33439 169.605 4.31635C170.83 4.31257 172.055 4.3158 173.28 4.31471C173.277 8.44657 173.287 12.5789 173.275 16.7105C173.228 17.9305 172.139 18.9761 170.926 18.9977C169.698 19.0022 168.471 18.9983 167.243 18.9996V13.8418C168.436 14.1235 169.686 14.2434 170.902 14.0566C171.629 13.9396 172.424 13.5826 172.671 12.8283C172.852 12.1832 172.75 11.5042 172.777 10.842V9.30427H170.672C170.662 10.3213 170.691 11.3401 170.657 12.3559C170.6 12.9803 169.982 13.377 169.393 13.3558C168.662 13.3636 167.215 12.8266 167.215 12.8266C167.212 10.9211 167.236 8.53468 167.247 6.63548V6.6353Z" fill="url(#paint1_linear)"/>
<path d="M174.065 9.92476C173.955 9.94826 174.043 9.54738 174.015 9.3953C174.022 8.43377 173.999 7.47119 174.028 6.51034C174.122 5.29063 175.255 4.2865 176.471 4.31505H180.052C180.048 8.44691 180.058 12.5792 180.047 16.7109C179.999 17.9308 178.91 18.9764 177.697 18.998C176.47 19.0027 175.242 18.9988 174.015 18.9999V13.349C174.853 14.0368 175.992 14.1438 177.037 14.1457C177.824 14.1454 178.607 14.024 179.371 13.8424V12.8072C178.51 13.2366 177.497 13.5094 176.542 13.2627C175.875 13.0968 175.392 12.4529 175.402 11.7653C175.325 11.0502 175.744 10.2952 176.447 10.0827C177.32 9.80951 178.27 10.0184 179.088 10.3735C179.263 10.4653 179.441 10.5791 179.371 10.2862V9.47245C178.003 9.14703 176.548 9.02729 175.174 9.3813C174.776 9.4935 174.388 9.66367 174.065 9.92485V9.92476Z" fill="url(#paint2_linear)"/>
<rect x="200.5" y="0.5" width="33" height="23" rx="3.5" fill="white" stroke="#D9D9D9"/>
<path fill-rule="evenodd" clip-rule="evenodd" d="M209.242 4.95508H217.333C222.831 4.95508 224.943 8.04802 224.943 11.9575C224.943 16.634 221.99 18.9847 217.333 18.9847H209.242V4.95508ZM210.01 5.79636V18.1929H217.333C221.75 18.1929 224.151 16.0649 224.151 11.9823C224.151 7.77585 221.558 5.79636 217.333 5.79636H210.01ZM212.171 12.2049C212.98 12.2049 213.636 11.5292 213.636 10.6956C213.636 9.86197 212.98 9.18621 212.171 9.18621C211.362 9.18621 210.707 9.86197 210.707 10.6956C210.707 11.5292 211.362 12.2049 212.171 12.2049ZM210.995 12.8483H213.348V17.1537H210.995V12.8483Z" fill="black"/>
<path fill-rule="evenodd" clip-rule="evenodd" d="M221.486 9.31031H222.158V11.3888H223.142C222.878 7.603 219.973 6.76172 217.332 6.76172H214.523V9.31031H214.932C215.7 9.31031 216.156 9.82992 216.156 10.6959C216.156 11.562 215.7 12.0816 214.956 12.0816H214.523V17.154H217.332C221.63 17.154 223.094 15.1003 223.166 12.0816H221.486V9.31031ZM218.245 11.3888V12.0816H216.564V9.31031H218.197V10.0031H217.236V10.3248H218.149V11.0176H217.26V11.3888H218.245ZM218.533 12.0816L219.349 9.31031H220.309L221.126 12.0816H220.429L220.285 11.562H219.397L219.253 12.0816H218.533ZM219.597 10.8444H219.589V10.8691L219.597 10.8444ZM219.597 10.8444H220.069L219.853 10.0774H219.829L219.597 10.8444ZM214.523 11.3888V10.0031H214.932C215.196 10.0031 215.484 10.0774 215.484 10.696C215.484 11.3145 215.22 11.3888 214.932 11.3888H214.523Z" fill="#D50072"/>
<defs>
<linearGradient id="paint0_linear" x1="180.746" y1="11.343" x2="186.786" y2="11.343" gradientUnits="userSpaceOnUse">
<stop stop-color="#58B03A"/>
<stop offset="1" stop-color="#55B330"/>
</linearGradient>
<linearGradient id="paint1_linear" x1="167.115" y1="11.7978" x2="173.181" y2="11.7978" gradientUnits="userSpaceOnUse">
<stop stop-color="#0F6EB6"/>
<stop offset="1" stop-color="#006DBA"/>
</linearGradient>
<linearGradient id="paint2_linear" x1="174.006" y1="11.4858" x2="180.051" y2="11.4858" gradientUnits="userSpaceOnUse">
<stop stop-color="#DE0D3D"/>
<stop offset="1" stop-color="#E30138"/>
</linearGradient>
</defs>
</svg>
