<svg width="22" height="22" viewBox="0 0 22 22" fill="none" xmlns="http://www.w3.org/2000/svg">
<path fill-rule="evenodd" clip-rule="evenodd" d="M13.0985 20.6713C13.8109 19.7037 14.4007 18.2524 14.8066 16.4996H19.2268C17.8219 18.5937 15.6399 20.1212 13.0985 20.6713ZM2.77522 16.4996H7.19378C7.59968 18.2524 8.18948 19.7037 8.90189 20.6713C6.36043 20.1212 4.17849 18.5937 2.77522 16.4996ZM8.90189 1.32871C8.18948 2.29791 7.59968 3.74923 7.19378 5.50041H2.77522C4.17849 3.40628 6.36043 1.88041 8.90189 1.32871ZM19.2268 5.50041H14.8066C14.4007 3.74923 13.8109 2.29791 13.0985 1.32871C15.6399 1.88041 17.8219 3.40628 19.2268 5.50041ZM15.3899 10.4508C15.3618 9.08728 15.2392 7.79005 15.0321 6.6005H19.8565C20.4397 7.77182 20.7959 9.07237 20.8721 10.4508H15.3899ZM15.3899 11.5509H20.8721C20.7959 12.9276 20.4397 14.2282 19.8565 15.3995H15.0321C15.2392 14.2133 15.3618 12.9127 15.3899 11.5509ZM6.61059 10.4508H1.1284C1.20461 9.07237 1.56081 7.77182 2.14564 6.6005H6.96845C6.76135 7.79005 6.63875 9.08728 6.61059 10.4508ZM13.9148 6.6005C14.1252 7.73869 14.2611 9.03095 14.2893 10.4508H7.71196C7.74012 9.03095 7.87432 7.73869 8.08473 6.6005H13.9148ZM10.999 1.10008C11.8705 1.10008 12.9938 2.7237 13.6796 5.50042H8.32006C9.00595 2.7237 10.1292 1.10008 10.999 1.10008ZM1.1284 11.5509H6.61059C6.63875 12.9127 6.76135 14.2133 6.96845 15.3995H2.14564C1.56081 14.2282 1.20461 12.9276 1.1284 11.5509ZM8.08473 15.3995C7.87432 14.263 7.74012 12.9724 7.71196 11.5509H14.2893C14.2611 12.9724 14.1252 14.263 13.9148 15.3995H8.08473ZM10.999 20.9016C10.1292 20.9016 9.00595 19.278 8.32006 16.4996H13.6796C12.9938 19.278 11.8705 20.9016 10.999 20.9016ZM0 11.0008C0 17.0745 4.92552 22 10.9992 22C17.0745 22 22 17.0745 22 11.0008C22 4.92552 17.0745 0 10.9992 0C4.92552 0 0 4.92552 0 11.0008Z" fill="#4CA585"/>
</svg>
