<svg width="76" height="24" viewBox="0 0 76 24" fill="none" xmlns="http://www.w3.org/2000/svg">
<rect x="0.5" y="0.5" width="33" height="23" rx="3.5" fill="white" stroke="#D9D9D9"/>
<path fill-rule="evenodd" clip-rule="evenodd" d="M9.44921 8.34316C9.16382 8.69506 8.70721 8.97261 8.2506 8.93296C8.19353 8.45715 8.41707 7.95161 8.67867 7.63936C8.96406 7.27755 9.46348 7.01983 9.86777 7C9.91533 7.49563 9.72983 7.98135 9.44921 8.34316ZM9.86297 9.02712C9.46071 9.003 9.09366 9.15319 8.79718 9.2745C8.60639 9.35256 8.44483 9.41867 8.32191 9.41867C8.18397 9.41867 8.01574 9.34903 7.82685 9.27084L7.82685 9.27084C7.57935 9.16838 7.29638 9.05124 6.99964 9.05686C6.31948 9.06677 5.68688 9.46823 5.33967 10.1076C4.62621 11.3863 5.15417 13.2796 5.84384 14.3205C6.18155 14.8359 6.58584 15.4009 7.11855 15.3811C7.35291 15.3719 7.5215 15.2973 7.69597 15.2202C7.89683 15.1314 8.10549 15.0391 8.43131 15.0391C8.74582 15.0391 8.94536 15.129 9.1369 15.2152C9.31903 15.2973 9.49393 15.376 9.75358 15.3712C10.3053 15.3613 10.6525 14.8557 10.9902 14.3403C11.3547 13.7871 11.5148 13.2471 11.5391 13.1652L11.542 13.1557C11.5414 13.1551 11.5369 13.153 11.5289 13.1492C11.4071 13.0911 10.476 12.6469 10.467 11.4557C10.4581 10.4559 11.2056 9.94935 11.3233 9.86961L11.3233 9.8696C11.3304 9.86476 11.3353 9.86149 11.3374 9.85978C10.8618 9.12625 10.1198 9.04695 9.86297 9.02712ZM13.6824 15.3167V7.5898H16.4649C17.9013 7.5898 18.9049 8.62071 18.9049 10.1274C18.9049 11.6341 17.8822 12.675 16.4268 12.675H14.8334V15.3167H13.6824ZM14.8333 8.60088H16.1603C17.1592 8.60088 17.7299 9.15599 17.7299 10.1324C17.7299 11.1088 17.1592 11.6688 16.1556 11.6688H14.8333V8.60088ZM22.7053 14.3898C22.4009 14.9945 21.7302 15.3761 21.0072 15.3761C19.9371 15.3761 19.1903 14.712 19.1903 13.7108C19.1903 12.7196 19.9133 12.1496 21.2498 12.0653L22.6862 11.9761V11.5499C22.6862 10.9204 22.2915 10.5784 21.5875 10.5784C21.0072 10.5784 20.5839 10.8907 20.4983 11.3665H19.4614C19.4947 10.3653 20.3984 9.63675 21.6208 9.63675C22.9383 9.63675 23.7945 10.3554 23.7945 11.4706V15.3167H22.729V14.3898H22.7053ZM21.3163 14.4592C20.7027 14.4592 20.3127 14.1519 20.3127 13.6811C20.3127 13.1954 20.6885 12.9129 21.4067 12.8683L22.6861 12.784V13.2202C22.6861 13.9438 22.0964 14.4592 21.3163 14.4592ZM27.3284 15.619C26.867 16.9721 26.3391 17.4181 25.2166 17.4181C25.131 17.4181 24.8456 17.4082 24.779 17.3884V16.4616C24.8503 16.4715 25.0263 16.4814 25.1167 16.4814C25.6256 16.4814 25.911 16.2584 26.087 15.6785L26.1916 15.3365L24.2415 9.7111H25.4449L26.8004 14.2759H26.8242L28.1798 9.7111H29.3499L27.3284 15.619Z" fill="black"/>
<rect x="42.5" y="0.5" width="33" height="23" rx="3.5" fill="white" stroke="#D9D9D9"/>
<path fill-rule="evenodd" clip-rule="evenodd" d="M58.0574 15.5278V12.5932H59.572C60.1927 12.5932 60.7165 12.3852 61.1436 11.975L61.2461 11.8711C62.0262 11.0219 61.9749 9.69896 61.1436 8.91331C60.7279 8.49737 60.1585 8.27207 59.572 8.28363H57.1406V15.5278H58.0574ZM58.0575 11.7035V9.17321H59.5951C59.9254 9.17321 60.2387 9.3003 60.4722 9.53137C60.9676 10.0166 60.979 10.8254 60.5006 11.328C60.2671 11.5764 59.9368 11.715 59.5951 11.7035H58.0575ZM65.5223 10.9583C65.1295 10.5944 64.5942 10.4095 63.9166 10.4095C63.0454 10.4095 62.3906 10.733 61.9578 11.3742L62.7664 11.8884C63.0625 11.4493 63.4668 11.2298 63.9792 11.2298C64.3038 11.2298 64.617 11.3511 64.8618 11.5706C65.101 11.7786 65.2376 12.079 65.2376 12.3967V12.6105C64.8846 12.4141 64.4405 12.3101 63.8938 12.3101C63.2561 12.3101 62.7436 12.4603 62.3621 12.7665C61.9806 13.0726 61.787 13.477 61.787 13.9912C61.7756 14.4591 61.9749 14.9039 62.328 15.2043C62.6867 15.5278 63.1422 15.6896 63.6775 15.6896C64.3095 15.6896 64.8106 15.4065 65.1921 14.8404H65.2319V15.5278H66.1088V12.4718C66.1088 11.8306 65.9152 11.3222 65.5223 10.9583ZM63.0342 14.6151C62.8462 14.4764 62.7323 14.2511 62.7323 14.0085C62.7323 13.737 62.8576 13.5117 63.1025 13.3326C63.3531 13.1535 63.6663 13.0611 64.0365 13.0611C64.5491 13.0553 64.9477 13.1709 65.2324 13.4019C65.2324 13.7948 65.0787 14.1356 64.7768 14.4244C64.5035 14.7017 64.1333 14.8577 63.7461 14.8577C63.4898 14.8635 63.2392 14.7768 63.0342 14.6151ZM68.079 17.7057L71.1424 10.5712H70.146L68.7281 14.1298H68.711L67.2591 10.5712H66.2626L68.2726 15.2101L67.1338 17.7057H68.079Z" fill="#3C4043"/>
<path d="M54.8916 11.9567C54.8916 11.6736 54.8689 11.3906 54.8233 11.1133H50.957V12.7135H53.172C53.0809 13.2276 52.7848 13.6898 52.3521 13.9786V15.0184H53.6731C54.4475 14.2963 54.8916 13.2276 54.8916 11.9567Z" fill="#4285F4"/>
<path d="M50.9582 16.0243C52.0628 16.0243 52.9967 15.6545 53.6743 15.0191L52.3532 13.9792C51.9831 14.2334 51.5105 14.3778 50.9582 14.3778C49.8877 14.3778 48.9823 13.6442 48.6578 12.6621H47.2969V13.7366C47.9916 15.1404 49.4094 16.0243 50.9582 16.0243Z" fill="#34A853"/>
<path d="M48.6565 12.6612C48.4857 12.147 48.4857 11.5867 48.6565 11.0668V9.99805H47.2954C46.7088 11.1708 46.7088 12.5572 47.2954 13.7299L48.6565 12.6612Z" fill="#FBBC04"/>
<path d="M50.9582 9.35174C51.5447 9.34018 52.1084 9.56548 52.5297 9.97564L53.7027 8.7856C52.9568 8.08083 51.9774 7.69378 50.9582 7.70533C49.4094 7.70533 47.9916 8.59497 47.2969 9.99875L48.6578 11.0732C48.9823 10.0854 49.8877 9.35174 50.9582 9.35174Z" fill="#EA4335"/>
</svg>
