<svg width="54" height="54" viewBox="0 0 60 60" fill="none" xmlns="http://www.w3.org/2000/svg">
<path fill-rule="evenodd" clip-rule="evenodd" d="M60 30C60 13.4327 46.5673 0 30 0C13.4327 0 0 13.4327 0 30C0 44.9725 10.969 57.3843 25.313 59.6374V38.674H17.6937V30H25.313V23.3891C25.313 15.8711 29.7933 11.7155 36.6446 11.7155C39.9268 11.7155 43.361 12.3019 43.361 12.3019V19.685H39.5766C35.8515 19.685 34.687 21.9969 34.687 24.372V29.9998H43.0064L41.6775 38.6737H34.6868V59.6371C49.0307 57.3882 59.9998 44.9765 59.9998 29.9998L60 30Z" fill="#1977F3"/>
<path fill-rule="evenodd" clip-rule="evenodd" d="M41.6781 38.6737L43.0071 29.9998H34.6877V24.372C34.6877 22.001 35.8478 19.685 39.5773 19.685H43.3616V12.3019C43.3616 12.3019 39.9277 11.7155 36.6453 11.7155C29.7939 11.7155 25.3136 15.8669 25.3136 23.389V30H17.6943V38.6739H25.3136V59.6374C26.8407 59.8775 28.4059 60 30.0006 60C31.5954 60 33.1606 59.8733 34.6877 59.6374V38.6739H41.6783L41.6781 38.6737Z" fill="#FEFEFE"/>
</svg>
