<svg width="54" height="54" viewBox="0 0 54 54" fill="none" xmlns="http://www.w3.org/2000/svg">
<path d="M0 27C0 12.0883 12.0883 0 27 0C41.9117 0 54 12.0883 54 27C54 41.9117 41.9117 54 27 54C12.0883 54 0 41.9117 0 27Z" fill="#F0F0F0"/>
<path d="M27.0012 15.4076C30.5502 15.4076 32.9442 16.9406 34.3092 18.2216L39.6432 13.0136C36.3672 9.96861 32.1042 8.09961 27.0012 8.09961C19.6092 8.09961 13.2252 12.3416 10.1172 18.5156L16.2282 23.2616C17.7612 18.7046 22.0032 15.4076 27.0012 15.4076Z" fill="#EA4335"/>
<path d="M45.144 27.4187C45.144 25.8647 45.018 24.7307 44.745 23.5547H27V30.5687H37.416C37.206 32.3117 36.072 34.9367 33.552 36.7007L39.516 41.3207C43.086 38.0237 45.144 33.1727 45.144 27.4187Z" fill="#4285F4"/>
<path d="M16.2496 30.7376C15.8506 29.5616 15.6196 28.3016 15.6196 26.9996C15.6196 25.6976 15.8506 24.4376 16.2286 23.2616L10.1176 18.5156C8.83656 21.0776 8.10156 23.9546 8.10156 26.9996C8.10156 30.0446 8.83656 32.9216 10.1176 35.4836L16.2496 30.7376Z" fill="#FBBC05"/>
<path d="M26.9997 45.9003C32.1027 45.9003 36.3867 44.2203 39.5157 41.3223L33.5517 36.7023C31.9557 37.8153 29.8137 38.5923 26.9997 38.5923C22.0017 38.5923 17.7597 35.2953 16.2477 30.7383L10.1367 35.4843C13.2447 41.6583 19.6077 45.9003 26.9997 45.9003Z" fill="#34A853"/>
</svg>
