<svg width="54" height="54" viewBox="0 0 60 60" fill="none" xmlns="http://www.w3.org/2000/svg">
<path d="M0 30C0 13.4315 13.4315 0 30 0C46.5685 0 60 13.4315 60 30C60 46.5685 46.5685 60 30 60C13.4315 60 0 46.5685 0 30Z" fill="white"/>
<path d="M30.0002 17.12C33.9436 17.12 36.6036 18.8233 38.1202 20.2467L44.0469 14.46C40.4069 11.0767 35.6702 9 30.0002 9C21.7869 9 14.6936 13.7133 11.2402 20.5733L18.0302 25.8467C19.7336 20.7833 24.4469 17.12 30.0002 17.12Z" fill="#EA4335"/>
<path d="M50.16 30.4667C50.16 28.74 50.02 27.48 49.7167 26.1733H30V33.9667H41.5733C41.34 35.9033 40.08 38.82 37.28 40.78L43.9067 45.9133C47.8733 42.25 50.16 36.86 50.16 30.4667Z" fill="#4285F4"/>
<path d="M18.0533 34.1533C17.61 32.8466 17.3533 31.4466 17.3533 30C17.3533 28.5533 17.61 27.1533 18.03 25.8466L11.24 20.5733C9.81667 23.42 9 26.6166 9 30C9 33.3833 9.81667 36.58 11.24 39.4266L18.0533 34.1533Z" fill="#FBBC05"/>
<path d="M29.9994 51C35.6694 51 40.4294 49.1333 43.906 45.9133L37.2794 40.78C35.506 42.0167 33.126 42.88 29.9994 42.88C24.446 42.88 19.7327 39.2167 18.0527 34.1533L11.2627 39.4267C14.716 46.2867 21.786 51 29.9994 51Z" fill="#34A853"/>
</svg>
