<svg width="74" height="30" viewBox="0 0 37 15" fill="none" xmlns="http://www.w3.org/2000/svg">
<path fill-rule="evenodd" clip-rule="evenodd" d="M16.797 11.7341V7.33214H19.0689C19.9999 7.33214 20.7857 7.02019 21.4263 6.40495L21.58 6.24898C22.7502 4.97518 22.6733 2.99082 21.4263 1.81234C20.8028 1.18844 19.9487 0.850492 19.0689 0.867823H15.4219V11.7341H16.797ZM16.7988 5.99707V2.20166H19.1053C19.6008 2.20166 20.0706 2.3923 20.4208 2.73891C21.164 3.4668 21.1811 4.67994 20.4636 5.43382C20.1133 5.80643 19.6178 6.0144 19.1053 5.99707H16.7988ZM27.9943 4.87887C27.405 4.33295 26.6021 4.05566 25.5857 4.05566C24.2789 4.05566 23.2967 4.54092 22.6476 5.50277L23.8604 6.27398C24.3045 5.61542 24.911 5.28614 25.6797 5.28614C26.1665 5.28614 26.6363 5.46811 27.0035 5.79739C27.3623 6.10934 27.5672 6.55994 27.5672 7.03653V7.35715C27.0377 7.06253 26.3715 6.90655 25.5515 6.90655C24.5949 6.90655 23.8262 7.13185 23.254 7.59111C22.6817 8.05037 22.3913 8.65694 22.3913 9.42816C22.3742 10.13 22.6732 10.7973 23.2027 11.2479C23.7408 11.7331 24.4241 11.9758 25.227 11.9758C26.175 11.9758 26.9267 11.5512 27.4989 10.702H27.5587V11.7331H28.874V7.14918C28.874 6.18733 28.5836 5.42478 27.9943 4.87887ZM24.2613 10.364C23.9794 10.156 23.8086 9.81808 23.8086 9.45413C23.8086 9.04687 23.9965 8.70892 24.3639 8.44029C24.7397 8.17167 25.2096 8.03302 25.7648 8.03302C26.5336 8.02436 27.1316 8.19767 27.5587 8.54428C27.5587 9.13352 27.3281 9.64477 26.8753 10.078C26.4653 10.494 25.91 10.7279 25.3292 10.7279C24.9447 10.7366 24.5689 10.6066 24.2613 10.364ZM31.8301 15.0005L36.4252 4.29883H34.9305L32.8038 9.63666H32.7782L30.6002 4.29883H29.1055L32.1205 11.2571L30.4123 15.0005H31.8301Z" fill="#B1B2B5"/>
<path d="M12.0543 6.37744C12.0543 5.95284 12.0201 5.52824 11.9518 5.1123H6.15234V7.51259H9.47484C9.33818 8.28381 8.89405 8.97703 8.24492 9.4103V10.9701H10.2265C11.3881 9.88689 12.0543 8.28381 12.0543 6.37744Z" fill="#B1B2B5"/>
<path d="M6.15405 12.4788C7.81103 12.4788 9.21178 11.9242 10.2282 10.971L8.24663 9.41124C7.69146 9.79251 6.98254 10.0091 6.15405 10.0091C4.54832 10.0091 3.19028 8.90865 2.70344 7.43555H0.662109V9.04729C1.70413 11.153 3.83087 12.4788 6.15405 12.4788Z" fill="#B1B2B5"/>
<path d="M2.70156 7.43562C2.44529 6.66441 2.44529 5.82388 2.70156 5.044V3.44092H0.659907C-0.219969 5.19998 -0.219969 7.27965 0.659907 9.03871L2.70156 7.43562Z" fill="#B1B2B5"/>
<path d="M6.15405 2.46999C7.03379 2.45266 7.87936 2.79061 8.51141 3.40584L10.2709 1.62079C9.15199 0.563622 7.68292 -0.0169535 6.15405 0.000377123C3.83087 0.000377123 1.70413 1.33483 0.662109 3.4405L2.70344 5.05225C3.19028 3.57048 4.54832 2.46999 6.15405 2.46999Z" fill="#B1B2B5"/>
</svg>
