<svg  viewBox="0 0 46 46" fill="none" xmlns="http://www.w3.org/2000/svg">
<path fill-rule="evenodd" clip-rule="evenodd" d="M38.72 31.586C38.72 35.52 35.52 38.72 31.586 38.72H14.514C10.58 38.72 7.38 35.52 7.38 31.586V14.515C7.38 10.581 10.58 7.381 14.514 7.381H31.585C35.519 7.381 38.72 10.581 38.72 14.515V31.586ZM31.585 4H14.514C8.716 4 4 8.717 4 14.515V31.586C4 37.384 8.716 42.101 14.514 42.101H31.585C37.383 42.101 42.1 37.384 42.1 31.586V14.515C42.1 8.717 37.383 4 31.585 4Z" fill="#D2D2D1"/>
<path fill-rule="evenodd" clip-rule="evenodd" d="M23.0504 29.4874C19.5014 29.4874 16.6134 26.5994 16.6134 23.0504C16.6134 19.5014 19.5004 16.6134 23.0504 16.6134C26.6004 16.6134 29.4874 19.5014 29.4874 23.0504C29.4874 26.5994 26.5994 29.4874 23.0504 29.4874ZM23.0504 13.2334C17.6374 13.2334 13.2334 17.6374 13.2334 23.0504C13.2334 28.4644 17.6374 32.8674 23.0504 32.8674C28.4634 32.8674 32.8674 28.4644 32.8674 23.0504C32.8674 17.6374 28.4634 13.2334 23.0504 13.2334Z" fill="#D2D2D1"/>
<path fill-rule="evenodd" clip-rule="evenodd" d="M33.2798 10.3672C32.6288 10.3672 31.9878 10.6312 31.5278 11.0932C31.0658 11.5532 30.8008 12.1922 30.8008 12.8462C30.8008 13.4972 31.0658 14.1372 31.5278 14.5992C31.9878 15.0582 32.6288 15.3252 33.2798 15.3252C33.9328 15.3252 34.5708 15.0582 35.0328 14.5992C35.4948 14.1372 35.7588 13.4972 35.7588 12.8462C35.7588 12.1922 35.4948 11.5532 35.0328 11.0932C34.5728 10.6312 33.9328 10.3672 33.2798 10.3672Z" fill="#D2D2D1"/>
</svg>
