<svg width="38" height="26" viewBox="0 0 38 26" fill="none" xmlns="http://www.w3.org/2000/svg">
<path d="M33.3489 1.63281H4.64844C2.99158 1.63281 1.64844 2.97596 1.64844 4.63281V21.3674C1.64844 23.0243 2.99158 24.3674 4.64844 24.3674H33.3489C35.0057 24.3674 36.3489 23.0243 36.3489 21.3674V4.63281C36.3489 2.97596 35.0057 1.63281 33.3489 1.63281Z" stroke="#4A4A49" stroke-width="2" stroke-miterlimit="10" stroke-linecap="round" stroke-linejoin="round"/>
<path d="M31.6591 5.08008H6.33594C5.78365 5.08008 5.33594 5.52779 5.33594 6.08008V19.917C5.33594 20.4693 5.78365 20.917 6.33594 20.917H31.6591C32.2114 20.917 32.6591 20.4693 32.6591 19.917V6.08008C32.6591 5.52779 32.2114 5.08008 31.6591 5.08008Z" stroke="#4A4A49" stroke-width="2" stroke-miterlimit="10" stroke-linecap="round" stroke-linejoin="round"/>
</svg>
