<svg viewBox="0 0 32 32" fill="none" xmlns="http://www.w3.org/2000/svg">
<path fill-rule="evenodd" clip-rule="evenodd" d="M16 0C24.822 0 32 5.824 32 12.984C32 15.85 30.89 18.43 28.57 20.972C25.214 24.836 17.708 29.542 16 30.262C14.34 30.962 14.532 29.868 14.608 29.436L14.614 29.4L14.842 28.03C14.896 27.622 14.952 26.988 14.79 26.584C14.61 26.138 13.902 25.906 13.382 25.794C5.692 24.78 0 19.402 0 12.984C0 5.824 7.18 0 16 0ZM10.044 15.372H6.994V9.836C6.994 9.7536 6.96141 9.67454 6.90333 9.61609C6.84525 9.55763 6.7664 9.52453 6.684 9.524H5.56C5.51903 9.524 5.47846 9.53207 5.4406 9.54775C5.40275 9.56343 5.36835 9.58641 5.33938 9.61538C5.31041 9.64435 5.28743 9.67875 5.27175 9.7166C5.25607 9.75446 5.248 9.79503 5.248 9.836V16.808C5.248 16.89 5.282 16.968 5.336 17.022V17.024L5.34 17.028L5.344 17.032C5.402 17.0878 5.47953 17.1187 5.56 17.118H10.044C10.216 17.118 10.354 16.978 10.354 16.806V15.686C10.3543 15.645 10.3465 15.6044 10.331 15.5664C10.3156 15.5285 10.2928 15.494 10.264 15.4648C10.2352 15.4356 10.201 15.4124 10.1632 15.3965C10.1255 15.3806 10.085 15.3723 10.044 15.372ZM11.626 9.524H12.75C12.922 9.524 13.06 9.664 13.06 9.836V16.808C13.06 16.98 12.92 17.118 12.75 17.118H11.626C11.5436 17.118 11.4645 17.0854 11.4061 17.0273C11.3476 16.9692 11.3145 16.8904 11.314 16.808V9.836C11.314 9.664 11.454 9.524 11.626 9.524ZM19.352 9.524H20.472C20.646 9.524 20.786 9.664 20.786 9.836V16.808C20.786 16.98 20.646 17.118 20.474 17.118H19.352C19.325 17.1182 19.2981 17.1148 19.272 17.108H19.268C19.2606 17.1056 19.2532 17.1029 19.246 17.1L19.236 17.096L19.222 17.09C19.2165 17.0877 19.2111 17.085 19.206 17.082L19.2 17.08L19.18 17.068L19.178 17.066C19.1468 17.0451 19.1197 17.0187 19.098 16.988L15.898 12.668V16.808C15.8983 16.8489 15.8904 16.8894 15.875 16.9272C15.8595 16.9651 15.8367 16.9995 15.8079 17.0285C15.7791 17.0575 15.7448 17.0805 15.7071 17.0962C15.6694 17.1119 15.6289 17.12 15.588 17.12H14.466C14.3836 17.12 14.3045 17.0874 14.2461 17.0293C14.1876 16.9712 14.1545 16.8924 14.154 16.81V9.836C14.154 9.664 14.294 9.524 14.466 9.524H15.6L15.61 9.526H15.622L15.628 9.528H15.64L15.66 9.534H15.664L15.668 9.536L15.688 9.542L15.698 9.546C15.7041 9.54834 15.7101 9.55101 15.716 9.554L15.722 9.556L15.726 9.558C15.735 9.56274 15.7437 9.56809 15.752 9.574L15.758 9.578L15.768 9.584V9.586C15.772 9.586 15.774 9.59 15.776 9.592C15.7815 9.59571 15.7869 9.59971 15.792 9.604L15.798 9.61C15.8151 9.62572 15.8305 9.64314 15.844 9.662L19.04 13.98V9.836C19.04 9.664 19.18 9.524 19.352 9.524ZM26.982 10.958C26.982 11.13 26.842 11.27 26.672 11.27H23.62V12.45H26.67C26.842 12.45 26.98 12.59 26.98 12.76V13.882C26.98 14.054 26.84 14.194 26.67 14.194H23.62V15.374H26.67C26.842 15.374 26.98 15.514 26.98 15.684V16.806C26.98 16.978 26.84 17.118 26.67 17.118H22.186C22.1452 17.1182 22.1048 17.1104 22.067 17.0949C22.0293 17.0795 21.9949 17.0567 21.966 17.028L21.962 17.022C21.9061 16.9647 21.8746 16.888 21.874 16.808V9.836C21.874 9.752 21.908 9.676 21.96 9.622L21.966 9.616L21.968 9.614C22.026 9.55645 22.1043 9.52411 22.186 9.524H26.67C26.842 9.524 26.98 9.664 26.98 9.836V10.958H26.982Z" fill="#D2D2D1"/>
</svg>
