<svg viewBox="0 0 32 32" fill="none" xmlns="http://www.w3.org/2000/svg">
<path fill-rule="evenodd" clip-rule="evenodd" d="M29.6287 29.6353V29.6339H29.6357V19.7862C29.6357 14.9681 28.5992 11.2568 22.9665 11.2568C20.2583 11.2568 18.4413 12.7427 17.7004 14.1514H17.6211V11.7069H12.2812V29.6339H17.8423V20.7567C17.8423 18.42 18.2847 16.1598 21.1793 16.1598C24.0315 16.1598 24.0739 18.8269 24.0739 20.9069V29.6353H29.6287Z" fill="#D2D2D1"/>
<path fill-rule="evenodd" clip-rule="evenodd" d="M3.22656 29.6357H8.79387V11.708H3.22656V29.6357Z" fill="#D2D2D1"/>
<path fill-rule="evenodd" clip-rule="evenodd" d="M6.00825 2.78271C4.22807 2.78271 2.7832 4.22689 2.7832 6.00776C2.7832 7.78724 4.22807 9.26132 6.00825 9.26132C7.78842 9.26132 9.23259 7.78724 9.23259 6.00776C9.2319 4.22689 7.78772 2.78271 6.00825 2.78271Z" fill="#D2D2D1"/>
</svg>
