<svg width="176" height="24" viewBox="0 0 176 24" fill="none" xmlns="http://www.w3.org/2000/svg">
<path d="M18.4768 22.7033C15.1787 22.7033 13.404 21.293 11.7109 19.3487L14.2489 16.8138C15.0939 17.9132 16.1932 19.0408 18.4768 19.0408C19.8871 19.0408 21.1561 18.1959 21.1561 16.5028C21.1561 12.6959 12.6972 13.544 12.6972 6.91946C12.6972 3.36692 15.3483 1.28125 18.4768 1.28125C21.0148 1.28125 22.7078 2.1262 24.115 3.81923L22.0011 6.35407C21.2943 5.22643 19.884 4.66418 18.4768 4.66418C17.2078 4.66418 16.3629 5.39604 16.3629 6.91946C16.3629 10.7264 24.96 9.45744 24.96 16.5028C24.96 20.1685 22.422 22.7033 18.4768 22.7033Z" fill="#1D1D1B"/>
<path d="M38.8885 22.7033C32.5467 22.7033 28.457 18.1927 28.457 11.9923C28.457 5.79182 32.8263 1.28125 38.8885 1.28125C41.5396 1.28125 44.0776 2.40889 45.7109 4.12705L43.6818 7.17075C42.4128 5.73214 40.7794 4.94373 38.8885 4.94373C34.7706 4.94373 32.264 8.04396 32.264 11.9923C32.264 15.9375 34.9151 19.0408 38.8885 19.0408C40.9742 19.0408 42.4128 18.3372 43.6818 16.8138L45.9622 19.6031C44.4419 21.6322 41.6778 22.7033 38.8885 22.7033Z" fill="#1D1D1B"/>
<path d="M59.744 22.7072C53.9361 22.7072 49.3125 18.338 49.3125 11.9962C49.3125 5.65438 53.9079 1.28516 59.744 1.28516C65.5518 1.28516 70.1723 5.65438 70.1723 11.9962C70.1723 18.3349 65.5487 22.7072 59.744 22.7072ZM59.744 4.9445C56.1349 4.9445 53.1195 7.68036 53.1195 11.993C53.1195 16.3057 56.1098 19.0416 59.744 19.0416C63.3813 19.0416 66.3685 16.3057 66.3685 11.993C66.3685 7.68036 63.3782 4.9445 59.744 4.9445Z" fill="#1D1D1B"/>
<path d="M81.2895 5.51014V22.1421H77.4825V5.51014H73.1133L73.5342 1.84766H85.2347L85.6556 5.51014H81.2895Z" fill="#1D1D1B"/>
<path d="M96.2229 22.7033C92.9248 22.7033 91.1501 21.293 89.457 19.3487L91.995 16.8138C92.8431 17.9132 93.9425 19.0408 96.2229 19.0408C97.6332 19.0408 98.9022 18.1959 98.9022 16.5028C98.9022 12.6959 90.4433 13.544 90.4433 6.91946C90.4433 3.36692 93.0944 1.28125 96.2229 1.28125C98.7609 1.28125 100.454 2.1262 101.861 3.81923L99.7472 6.35407C99.0404 5.22643 97.6301 4.66418 96.2229 4.66418C94.9539 4.66418 94.1089 5.39604 94.1089 6.91946C94.1089 10.7264 102.706 9.45744 102.706 16.5028C102.706 20.1685 100.168 22.7033 96.2229 22.7033Z" fill="#1D1D1B"/>
<path d="M124.827 22.1421V8.61037H124.77L118.482 18.7591L112.199 8.61037H112.14V22.1421H108.336V1.84766H112.14L118.482 12.276L124.827 1.84766H128.63V22.1421H124.827Z" fill="#1D1D1B"/>
<path d="M147.086 22.1421L145.735 17.6315H139.139L137.785 22.1421H133.695L140.461 1.84766H144.409L151.175 22.1421H147.086ZM142.465 6.35508H142.409L140.153 14.2486H144.72L142.465 6.35508Z" fill="#1D1D1B"/>
<path d="M169.208 22.1421L160.102 8.61037H160.045V22.1421H156.238V1.84766H159.901L169.007 15.3762H169.063V1.84766H172.87V22.1421H169.208Z" fill="#1D1D1B"/>
<path d="M9.05924 7.95389V9.83224H7.76826V7.95389H6.12548V9.83224H4.83136V7.95389H3.12891V6.71945H4.83136V4.78141H3.12891V3.55011H4.83136V1.84766H6.12234V3.55011H7.76826V1.84766H9.05924V3.55011H10.7774V4.78455H9.05924V6.72259H10.7774V7.95703H9.05924V7.95389ZM7.76826 4.78141H6.12548V6.71945H7.76826V4.78141Z" fill="#4CA585"/>
</svg>
