<svg viewBox="0 0 369 48" fill="none" xmlns="http://www.w3.org/2000/svg">
<path fill-rule="evenodd" clip-rule="evenodd" d="M36.1671 46.8826C29.1031 46.8826 25.2991 43.8646 21.6791 39.6966L27.1121 34.2656C28.9251 36.6176 31.2801 39.0336 36.1671 39.0336C39.1851 39.0336 41.9041 37.2226 41.9041 33.5996C41.9041 25.4496 23.7911 27.2616 23.7911 13.0726C23.7911 5.4666 29.4671 1.0006 36.1671 1.0006C41.6011 1.0006 45.2261 2.8106 48.2441 6.4336L43.7171 11.8646C42.2031 9.4516 39.1851 8.2446 36.1671 8.2446C33.4521 8.2446 31.6401 9.8146 31.6401 13.0726C31.6401 21.2236 50.0521 18.5066 50.0521 33.5996C50.0521 41.4486 44.6191 46.8826 36.1671 46.8826Z" fill="#EFEFEF"/>
<path fill-rule="evenodd" clip-rule="evenodd" d="M79.8863 46.8826C66.3043 46.8826 57.5493 37.2226 57.5493 23.9406C57.5493 10.6596 66.9073 1.0006 79.8863 1.0006C85.5633 1.0006 90.9963 3.4136 94.4963 7.0976L90.1513 13.6176C87.4323 10.5386 83.9323 8.8466 79.8863 8.8466C71.0703 8.8466 65.6973 15.4886 65.6973 23.9406C65.6973 32.3926 71.3743 39.0336 79.8863 39.0336C84.3533 39.0336 87.4323 37.5246 90.1513 34.2656L95.0383 40.2416C91.7823 44.5886 85.8623 46.8826 79.8863 46.8826Z" fill="#EFEFEF"/>
<path fill-rule="evenodd" clip-rule="evenodd" d="M124.548 8.847C116.82 8.847 110.359 14.703 110.359 23.94C110.359 33.177 116.759 39.034 124.548 39.034C132.336 39.034 138.737 33.177 138.737 23.94C138.737 14.703 132.336 8.847 124.548 8.847ZM124.548 46.883C112.11 46.883 102.211 37.525 102.211 23.94C102.211 10.356 112.05 1 124.548 1C136.985 1 146.885 10.356 146.885 23.94C146.885 37.525 136.985 46.883 124.548 46.883Z" fill="#EFEFEF"/>
<path fill-rule="evenodd" clip-rule="evenodd" d="M170.697 10.055V45.675H162.544V10.055H153.186L154.092 2.208H179.149L180.051 10.055H170.697Z" fill="#EFEFEF"/>
<path fill-rule="evenodd" clip-rule="evenodd" d="M202.677 46.8826C195.613 46.8826 191.81 43.8646 188.189 39.6966L193.622 34.2656C195.435 36.6176 197.79 39.0336 202.677 39.0336C205.695 39.0336 208.414 37.2226 208.414 33.5996C208.414 25.4496 190.301 27.2616 190.301 13.0726C190.301 5.4666 195.977 1.0006 202.677 1.0006C208.111 1.0006 211.736 2.8106 214.755 6.4336L210.227 11.8646C208.714 9.4516 205.695 8.2446 202.677 8.2446C199.963 8.2446 198.15 9.8146 198.15 13.0726C198.15 21.2236 216.563 18.5066 216.563 33.5996C216.563 41.4486 211.129 46.8826 202.677 46.8826Z" fill="#EFEFEF"/>
<path fill-rule="evenodd" clip-rule="evenodd" d="M263.938 45.6751V16.6961H263.816L250.352 38.4311L236.891 16.6961H236.77V45.6751H228.622V2.2081H236.77L250.352 24.5451L263.938 2.2081H272.086V45.6751H263.938Z" fill="#EFEFEF"/>
<path fill-rule="evenodd" clip-rule="evenodd" d="M301.708 11.865H301.586L296.755 28.771H306.539L301.708 11.865ZM311.608 45.675L308.711 36.015H294.583L291.687 45.675H282.931L297.419 2.208H305.875L320.364 45.675H311.608Z" fill="#EFEFEF"/>
<path fill-rule="evenodd" clip-rule="evenodd" d="M358.983 45.6751L339.482 16.6961H339.36V45.6751H331.212V2.2081H339.057L358.558 31.1841H358.679V2.2081H366.828V45.6751H358.983Z" fill="#EFEFEF"/>
<path fill-rule="evenodd" clip-rule="evenodd" d="M8.414 12.6483H11.936V8.4973H8.414V12.6483ZM14.703 15.2893V19.3143H11.936V15.2893H8.414V19.3143H5.647V15.2893H2V12.6473H5.647V8.4973H2V5.8553H5.647V2.2083H8.414V5.8553H11.936V2.2083H14.703V5.8553H18.384V8.4973H14.703V12.6473H18.384V15.2893H14.703Z" fill="#4CA585"/>
</svg>
