<svg  viewBox="0 0 46 46" fill="none" xmlns="http://www.w3.org/2000/svg">
<path fill-rule="evenodd" clip-rule="evenodd" d="M45.768 8.402C44.066 9.149 42.252 9.643 40.361 9.883C42.306 8.722 43.791 6.897 44.489 4.698C42.675 5.779 40.673 6.543 38.539 6.969C36.817 5.135 34.363 4 31.685 4C26.491 4 22.309 8.216 22.309 13.385C22.309 14.129 22.372 14.843 22.526 15.525C14.726 15.144 7.824 11.406 3.187 5.711C2.377 7.115 1.902 8.722 1.902 10.453C1.902 13.703 3.576 16.583 6.07 18.251C4.562 18.222 3.084 17.785 1.831 17.095V17.198C1.831 21.757 5.083 25.545 9.348 26.418C8.584 26.626 7.752 26.726 6.888 26.726C6.288 26.726 5.681 26.692 5.112 26.566C6.328 30.282 9.777 33.013 13.879 33.102C10.687 35.599 6.634 37.104 2.246 37.104C1.476 37.104 0.738 37.07 0 36.975C4.157 39.656 9.082 41.186 14.394 41.186C31.66 41.186 41.099 26.883 41.099 14.486C41.099 14.072 41.085 13.672 41.065 13.273C42.927 11.952 44.492 10.301 45.768 8.402Z" fill="#D2D2D1"/>
</svg>
